<?xml version="1.0" encoding="UTF-8"?>
<svg id="Layer_1" xmlns="http://www.w3.org/2000/svg" version="1.1" viewBox="0 0 1896.4 576">
  <!-- Generator: Adobe Illustrator 29.5.1, SVG Export Plug-In . SVG Version: 2.1.0 Build 141)  -->
  <defs>
    <style>
      .st0 {
        fill: #fff;
      }
    </style>
  </defs>
  <g id="Peraton_Logo">
    <path class="st0" d="M289.3,315.6h-92.6v116.5h-48.5V139.1h141.2c68.8,0,99.7,40.6,99.7,88.2s-30.9,88.2-99.7,88.2h0ZM287.5,183.7h-90.9v87.3h90.9c32.6,0,52.9-15.9,52.9-43.7s-20.3-43.6-52.9-43.6h0Z"/>
    <path class="st0" d="M536.8,372h50.7c-15,40.6-54.2,65.7-99.2,65.7s-109.8-45.9-109.8-109,44.5-108.5,107.6-108.5,104.6,46.8,104.6,106.7c0,6.2,0,12.4-.9,18.5h-162.8c5.3,29.1,30.4,48.9,61.3,48.9s38.4-7,48.5-22.5v.2ZM427.8,308h113.4c-4.4-27.3-25.6-45.9-55.1-45.9s-54.2,18.6-58.2,45.9h-.1Z"/>
    <path class="st0" d="M659,226v25.1c10.2-15,32.6-26.9,63.1-26.9h19v44.6h-19c-40.2,0-63.1,25.6-63.1,63.5v99.7h-46.8v-206h46.8Z"/>
    <path class="st0" d="M1036.2,174.4v51.6h64.4v41h-64.4v93.1c0,19.9,10.1,30.9,31.3,30.9h33.1v41h-33.5c-51.6,0-77.6-25.1-77.6-64v-101h-37.9v-41h37.9v-51.6h46.8-.1Z"/>
    <path class="st0" d="M1334,329.3c0,61.8-47.2,108.5-109.8,108.5s-110.3-46.8-110.3-108.5,47.2-108.9,110.3-108.9,109.8,46.3,109.8,108.9ZM1287.2,329.3c0-37.9-26.5-65.7-63.1-65.7s-63.5,27.8-63.5,65.7,26.9,65.3,63.5,65.3,63.1-28.2,63.1-65.3h0Z"/>
    <path class="st0" d="M1558.6,309.4v122.6h-46.8v-116c0-31.8-17.2-52.5-51.6-52.5s-58.2,23.4-58.2,62.6v105.9h-46.8v-206h46.8v19c12.3-14.6,36.2-24.7,65.7-24.7,55.1,0,90.9,35.3,90.9,89.1Z"/>
    <path class="st0" d="M843,224.3h-76.6l.6,44.2h76.9c30,0,54.7,5.6,54.7,33.8h-57.8c-48.1,0-94,15.4-94,66.2s33.1,69.3,82.5,69.3,53.8-8.4,69.2-24.7v19h46.8v-129.7c0-52.5-41.4-77.2-102.3-78.1h0ZM898.6,350.9c0,29.6-26.5,47.2-61.8,47.2s-43.2-11-43.2-29.6,17.7-28.7,46.8-28.7h58.2v11h0Z"/>
  </g>
</svg>